<svg version="1" xmlns="http://www.w3.org/2000/svg" width="682.667" height="682.667" viewBox="0 0 512.000000 512.000000"><path d="M237 8.7c-2.5.2-9.2 1-15 1.9-5.8.8-11.4 1.7-12.5 1.8-1.1.2-5.8 1.3-10.5 2.4-69.8 17-127.3 61.6-161.3 125-2.8 5.3-5.2 9.9-5.2 10.2-.1.3-1.1 2.7-2.4 5.5-9.1 19.6-17.4 51.1-19.9 75.5-1.4 13.2-.6 49.7 1.2 59.7.2 1 .7 3.8 1.1 6.3 4.2 27.5 18.5 64.9 34 89.5 23.7 37.4 55.9 67.3 94.6 87.9 18.8 10 45.7 19.8 63.4 23.2 2.2.4 4.7.8 5.5 1 4.7.9 8 1.4 12.5 1.9 2.8.4 6.1.9 7.5 1.2 4.4.9 43.3 1.2 49.5.3 3.3-.5 8.3-1.1 11-1.4 2.8-.3 6.1-.8 7.5-1.1 1.4-.3 4.1-.8 6-1.1 24.9-4.5 61-18.5 80.8-31.3 3.4-2.3 6.5-4.1 6.8-4.1.2 0 5.5-3.8 11.7-8.4 17-12.7 27.4-22.4 43.7-41.2 27.3-31.3 49.4-81.4 54.5-123.9.4-2.8.9-6.1 1.2-7.5.9-4.4 1.1-42.3.3-49-.5-3.6-1.1-8.8-1.4-11.5-1.8-15.9-8.5-41.3-15.1-57.3-1.4-3.5-2.2-6.8-1.9-7.5.4-.7.4-.9-.1-.5-.4.4-3.7-5.2-7.4-12.5-23.7-47-62.4-85.7-109.1-109-6.9-3.4-12.7-6.4-13-6.7-.3-.3-1.2-.6-2-.8-.8-.1-4.9-1.6-9-3.2-15.3-5.9-33.2-10.6-50-13.1-3.6-.5-7.8-1.2-9.5-1.5-3.5-.6-41-1.2-47.5-.7zm101.5 66.2c14.6 7.3 20.7 12 24.6 19 1.1 2 3.3 5.8 4.8 8.6 1.6 2.7 2.7 5.3 2.5 5.7-.2.3 0 .9.6 1.3.5.3 2 2.7 3.1 5.3 1.2 2.6 2.3 5 2.5 5.4.3.4-1.2 2.4-3.1 4.5-1.9 2.1-3.5 4-3.5 4.3 0 .3 1.5 1.2 3.2 1.9 7.9 3.5 18 16.7 21.4 28 2 6.7 2 153.2 0 160.6-4 14.9-14.6 26.7-28.6 31.8-6.5 2.4-8.2 2.5-32.8 2.6-20.8.1-22.2.2-21.3 1.8.4 1 3.2 6.5 6.1 12.3 2.8 5.8 7.7 14.1 10.8 18.5 12.1 17 35.5 37.2 54.2 47 13.9 7.2 13.4 6.6 5 6-27.3-2-51.1-8.4-74.5-20.2-8-4-25.2-14.5-26.5-16.2-.3-.3-2.7-2.4-5.5-4.5-11.7-9.3-25.3-24-33.6-36.5l-5.1-7.6-63.7-.5c-63.4-.5-63.6-.5-69-2.8-7.1-3-14.3-8-13.5-9.4.4-.6.3-.8-.4-.4-1.2.7-8.4-7.3-7.6-8.5.3-.5 0-.9-.5-.9-1.2 0-4.4-6.7-5.7-11.5-1.4-5.4-1.7-153.3-.3-159.5 3.6-16.9 16.3-30 33.4-34.6 4-1.1 20-1.4 78-1.4h73L295 96.5C310.7 80.8 323.7 68 324 68c.2 0 6.8 3.1 14.5 6.9z"/><path d="M242.9 168.7l-83.6 83.8-1.3 6.2c-.8 3.8-1.7 6-2.3 5.6-.6-.3-.7-.1-.3.6.4.6-.2 5.1-1.4 9.9-1.2 4.8-2.4 9.7-2.6 10.9-.2 1.2-.9 3.4-1.4 4.8-2 5.2-1.6 5.5 4.8 4 3.3-.8 7-1.6 8.3-1.9 1.3-.3 8.7-2.1 16.4-4.1l14-3.6 83.3-83.3 83.3-83.3-2.7-5.4c-6.1-12.2-9.4-16.7-15.3-20.1-4.8-2.9-14.5-7.8-15.3-7.8-.2 0-37.9 37.7-83.9 83.7z"/></svg>